<?xml version="1.0" encoding="UTF-8" standalone="no"?>
<svg
   id="Layer_2"
   viewBox="0 0 224.06 31.98"
   version="1.1"
   sodipodi:docname="logo (no font).svg"
   inkscape:version="1.1.1 (3bf5ae0d25, 2021-09-20)"
   xmlns:inkscape="http://www.inkscape.org/namespaces/inkscape"
   xmlns:sodipodi="http://sodipodi.sourceforge.net/DTD/sodipodi-0.dtd"
   xmlns="http://www.w3.org/2000/svg"
   xmlns:svg="http://www.w3.org/2000/svg">
  <sodipodi:namedview
     id="namedview6361"
     pagecolor="#ffffff"
     bordercolor="#666666"
     borderopacity="1.0"
     inkscape:pageshadow="2"
     inkscape:pageopacity="0.0"
     inkscape:pagecheckerboard="0"
     showgrid="false"
     inkscape:zoom="4.7219495"
     inkscape:cx="111.92411"
     inkscape:cy="16.095047"
     inkscape:window-width="1920"
     inkscape:window-height="1018"
     inkscape:window-x="-6"
     inkscape:window-y="-6"
     inkscape:window-maximized="1"
     inkscape:current-layer="Layer_2" />
  <defs
     id="defs6345">
    <style
       id="style6343">.cls-1{font-family:CenturyGothicPro, 'Century Gothic Pro';font-size:29.36px;}.cls-2{fill:#2b2e6f;}.cls-3{fill:#71b747;}.cls-4{fill:none;stroke:#2b2e6f;stroke-linecap:round;stroke-linejoin:round;stroke-width:1.57px;}</style>
  </defs>
  <g
     id="Layer_1-2">
    <g
       id="g6357">
      <path
         class="cls-4"
         d="M.79,29.96C8.85,21.16,16.92,12.37,24.98,3.58c.55,8.8,1.11,17.59,1.66,26.39-5.76-6.6-11.52-13.2-17.28-19.79C6.51,16.77,3.65,23.36,.79,29.96Z"
         id="path6347" />
      <g
         aria-label="minimaxlabs"
         transform="translate(34.71 25.22)"
         id="text6355"
         class="cls-1"
         style="font-size:29.36px;font-family:CenturyGothicPro, 'Century Gothic Pro'">
        <path
           d="m 14.8268,-6.8115201 c 0,-1.4386401 0.05872,-2.8185601 0.55784,-4.0810399 0.79272,-1.99648 2.4956,-3.17088 4.43336,-3.17088 2.11392,0 3.43512,1.52672 3.5232,2.90664 0.02936,0.5872 0.17616,1.4973598 0.17616,2.6423998 V 0 h 1.996481 v -9.2484002 c 0,-4.4333598 -2.084561,-6.7527998 -5.314161,-6.7527998 -2.29008,0 -4.34528,1.26248 -5.7252,3.75808 -0.85144,-2.52496 -2.55432,-3.75808 -4.9324798,-3.75808 -2.23136,0 -3.9636001,1.08632 -5.3435201,3.0828 v -2.67176 H 2.202 V 0 h 1.9964801 v -6.6060001 c 0,-2.3488001 0.20552,-4.1984799 1.3212,-5.6371199 0.8808,-1.14504 2.2607201,-1.82032 3.6406401,-1.82032 2.0551998,0 3.4351198,1.468 3.5231998,3.17088 0.02936,0.70464 0.1468,1.7028798 0.1468,2.9066398 V 0 h 1.99648 z"
           style="fill:#2b2e6f"
           id="path6420" />
        <path
           d="m 29.506793,0 h 1.99648 v -15.59016 h -1.99648 z m 0.96888,-22.02 c -0.8808,0 -1.64416,0.70464 -1.64416,1.64416 0,0.91016 0.734,1.67352 1.64416,1.67352 0.91016,0 1.67352,-0.76336 1.67352,-1.67352 0,-0.91016 -0.76336,-1.64416 -1.67352,-1.64416 z"
           style="fill:#2b2e6f"
           id="path6422" />
        <path
           d="M 37.63948,-15.59016 H 35.643 V 0 h 1.99648 v -6.5472801 c 0,-2.4662401 0.17616,-3.9929599 1.35056,-5.5196799 1.05696,-1.37992 2.43688,-2.11392 4.1104,-2.11392 3.02408,0 4.16912,2.02584 4.16912,5.6958398 V 0 h 1.99648 v -8.7492802 c 0,-4.9031198 -2.37816,-7.2519198 -5.78392,-7.2519198 -2.29008,0 -4.22784,1.08632 -5.84264,3.20024 z"
           style="fill:#2b2e6f"
           id="path6424" />
        <path
           d="m 53.288321,0 h 1.99648 v -15.59016 h -1.99648 z m 0.96888,-22.02 c -0.8808,0 -1.64416,0.70464 -1.64416,1.64416 0,0.91016 0.734,1.67352 1.64416,1.67352 0.91016,0 1.67352,-0.76336 1.67352,-1.67352 0,-0.91016 -0.76336,-1.64416 -1.67352,-1.64416 z"
           style="fill:#2b2e6f"
           id="path6426" />
        <path
           d="m 72.026801,-6.8115201 c 0,-1.4386401 0.05872,-2.8185601 0.55784,-4.0810399 0.79272,-1.99648 2.4956,-3.17088 4.43336,-3.17088 2.11392,0 3.43512,1.52672 3.5232,2.90664 0.02936,0.5872 0.17616,1.4973598 0.17616,2.6423998 V 0 h 1.99648 v -9.2484002 c 0,-4.4333598 -2.08456,-6.7527998 -5.31416,-6.7527998 -2.29008,0 -4.34528,1.26248 -5.7252,3.75808 -0.85144,-2.52496 -2.55432,-3.75808 -4.93248,-3.75808 -2.23136,0 -3.9636,1.08632 -5.34352,3.0828 v -2.67176 h -1.99648 V 0 h 1.99648 v -6.6060001 c 0,-2.3488001 0.20552,-4.1984799 1.3212,-5.6371199 0.8808,-1.14504 2.26072,-1.82032 3.64064,-1.82032 2.0552,0 3.43512,1.468 3.5232,3.17088 0.02936,0.70464 0.1468,1.7028798 0.1468,2.9066398 V 0 h 1.99648 z"
           style="fill:#71b747"
           id="path6428" />
        <path
           d="m 100.53535,-12.74224 c -1.556076,-2.17264 -3.699356,-3.25896 -6.224316,-3.25896 -4.52144,0 -8.04464,3.72872 -8.04464,8.1620798 0,4.4333601 3.43512,8.22080021 7.98592,8.22080021 2.43688,0 4.58016,-0.99824002 6.283036,-3.05344011 V 0 h 1.96712 v -15.59016 h -1.96712 z m -6.048156,-1.3212 c 3.49384,0 6.194956,2.73048 6.194956,6.3417598 0,3.8755201 -3.024076,6.2830402 -6.224316,6.2830402 -3.49384,0 -6.13624,-2.9653601 -6.13624,-6.3417602 0,-3.3470398 2.58368,-6.2830398 6.1656,-6.2830398 z"
           style="fill:#71b747"
           id="path6430" />
        <path
           d="M 110.57643,-8.1914402 104.67507,0 h 2.40752 l 4.6976,-6.5472801 L 116.53652,0 h 2.43688 l -5.98945,-8.1914402 5.31417,-7.3987198 h -2.37816 l -4.13977,5.7545598 -4.13976,-5.7545598 h -2.40752 z"
           style="fill:#71b747"
           id="path6432" />
        <path
           d="m 128.95776,0 h 1.99648 v -21.60896 h -1.99648 z"
           style="fill:#2b2e6f"
           id="path6434" />
        <path
           d="m 148.68764,-12.74224 c -1.55608,-2.17264 -3.69936,-3.25896 -6.22432,-3.25896 -4.52144,0 -8.04464,3.72872 -8.04464,8.1620798 0,4.4333601 3.43512,8.22080021 7.98592,8.22080021 2.43688,0 4.58016,-0.99824002 6.28304,-3.05344011 V 0 h 1.96712 v -15.59016 h -1.96712 z m -6.04816,-1.3212 c 3.49384,0 6.19496,2.73048 6.19496,6.3417598 0,3.8755201 -3.02408,6.2830402 -6.22432,6.2830402 -3.49384,0 -6.13624,-2.9653601 -6.13624,-6.3417602 0,-3.3470398 2.58368,-6.2830398 6.1656,-6.2830398 z"
           style="fill:#2b2e6f"
           id="path6436" />
        <path
           d="m 157.31945,-2.8772801 c 1.58544,2.17264009 3.67,3.28832011 6.19496,3.28832011 4.5508,0 8.074,-3.78744011 8.074,-8.19144021 0,-4.4333598 -3.46448,-8.2207998 -8.01528,-8.2207998 -2.43688,0 -4.5508,1.0276 -6.25368,3.0828 v -8.69056 h -1.99648 V 0 h 1.99648 z m 6.04816,1.3505601 c -3.5232,0 -6.19496,-2.7598401 -6.19496,-6.3711202 0,-3.9048798 2.99472,-6.2830398 6.19496,-6.2830398 3.49384,0 6.1656,2.96536 6.1656,6.3417598 0,3.3470401 -2.55432,6.3124002 -6.1656,6.3124002 z"
           style="fill:#2b2e6f"
           id="path6438" />
        <path
           d="m 173.73166,-1.82032 c 1.11568,1.43863999 2.87728,2.23136001 4.60952,2.23136001 2.81856,0 4.6976,-2.17264001 4.6976,-4.60952011 0,-2.81856 -1.99648,-3.6112801 -5.5784,-5.6958401 -0.70464,-0.4110398 -1.20376,-1.2918398 -1.20376,-2.0845598 0,-1.1744 1.05696,-2.08456 2.3488,-2.08456 1.26248,0 2.202,0.5872 3.14152,1.49736 l 1.29184,-1.3212 c -1.3212,-1.29184 -2.61304,-2.11392 -4.31592,-2.11392 -2.37816,0 -4.28656,1.67352 -4.28656,4.13976 0,2.7304798 1.82032,3.5819198 5.40224,5.5783999 0.76336,0.41104 1.29184,1.26248 1.29184,2.17264 0,1.468 -1.35056,2.5836801 -2.87728,2.5836801 -1.1744,0 -2.26072,-0.61656 -3.25896,-1.7322401 z"
           style="fill:#2b2e6f"
           id="path6440" />
      </g>
    </g>
  </g>
</svg>
