<?xml version="1.0" encoding="utf-8"?>
<svg viewBox="0 0 167 55" xmlns="http://www.w3.org/2000/svg">
  <rect width="167" height="55" style="stroke: rgb(71, 98, 130); fill: rgb(71, 98, 130);" transform="matrix(1, 0, 0, 1, 3.552713678800501e-15, 0)">
    <title>Backgroud</title>
  </rect>
  <path d="M 76.955 93.827 L 75.136 88.942 L 68.701 88.942 L 66.904 93.827 L 64.512 93.827 L 70.779 77.341 L 73.137 77.341 L 79.37 93.827 Z M 74.496 86.943 L 72.766 82.102 Q 72.688 81.855 72.525 81.361 Q 72.362 80.867 72.199 80.339 Q 72.036 79.811 71.935 79.463 Q 71.823 79.924 71.677 80.435 Q 71.531 80.946 71.391 81.389 Q 71.25 81.833 71.16 82.102 L 69.408 86.943 Z" transform="matrix(0.993401, 0, 0, 0.992193, -49.823407, -67.629754)" style="fill: rgb(255, 255, 255);"/>
  <path d="M 90.96 89.413 Q 90.96 90.873 90.236 91.912 Q 89.511 92.951 88.197 93.501 Q 86.884 94.052 85.075 94.052 Q 84.166 94.052 83.34 93.956 Q 82.515 93.861 81.807 93.681 Q 81.1 93.501 80.527 93.232 L 80.527 91.053 Q 81.459 91.435 82.683 91.766 Q 83.907 92.098 85.21 92.098 Q 86.344 92.098 87.114 91.789 Q 87.883 91.48 88.276 90.918 Q 88.669 90.357 88.669 89.571 Q 88.669 88.785 88.287 88.251 Q 87.905 87.718 87.08 87.268 Q 86.255 86.819 84.918 86.314 Q 83.986 85.977 83.222 85.545 Q 82.459 85.112 81.903 84.551 Q 81.347 83.989 81.044 83.231 Q 80.74 82.473 80.74 81.485 Q 80.74 80.126 81.409 79.16 Q 82.077 78.194 83.279 77.683 Q 84.48 77.172 86.064 77.172 Q 87.366 77.172 88.495 77.431 Q 89.624 77.689 90.646 78.138 L 89.916 80.047 Q 88.961 79.654 87.995 79.407 Q 87.03 79.16 85.996 79.16 Q 85.042 79.16 84.385 79.441 Q 83.728 79.722 83.385 80.238 Q 83.043 80.755 83.043 81.462 Q 83.043 82.26 83.402 82.787 Q 83.761 83.315 84.536 83.742 Q 85.311 84.169 86.558 84.652 Q 87.962 85.191 88.944 85.797 Q 89.927 86.404 90.444 87.257 Q 90.96 88.111 90.96 89.413 Z" transform="matrix(0.993401, 0, 0, 0.992193, -49.823407, -67.629754)" style="fill: rgb(255, 255, 255);"/>
  <path d="M 106.9 93.827 L 104.598 93.827 L 104.598 86.246 L 96.501 86.246 L 96.501 93.827 L 94.199 93.827 L 94.199 77.408 L 96.501 77.408 L 96.501 84.259 L 104.598 84.259 L 104.598 77.408 L 106.9 77.408 Z" transform="matrix(0.993401, 0, 0, 0.992193, -49.823407, -67.629754)" style="fill: rgb(255, 255, 255);"/>
  <path d="M 111.309 77.408 L 116.071 77.408 Q 119.204 77.408 120.788 78.329 Q 122.371 79.25 122.371 81.485 Q 122.371 82.439 122.023 83.192 Q 121.675 83.944 121.012 84.438 Q 120.35 84.932 119.384 85.112 L 119.384 85.224 Q 120.395 85.393 121.181 85.831 Q 121.967 86.269 122.422 87.072 Q 122.877 87.875 122.877 89.133 Q 122.877 90.638 122.169 91.688 Q 121.462 92.738 120.165 93.282 Q 118.867 93.827 117.082 93.827 L 111.309 93.827 Z M 113.612 84.315 L 116.475 84.315 Q 118.463 84.315 119.227 83.663 Q 119.991 83.012 119.991 81.765 Q 119.991 80.474 119.081 79.907 Q 118.171 79.34 116.195 79.34 L 113.612 79.34 Z M 113.612 86.213 L 113.612 91.884 L 116.745 91.884 Q 118.778 91.884 119.614 91.087 Q 120.451 90.289 120.451 88.942 Q 120.451 88.088 120.075 87.476 Q 119.699 86.864 118.856 86.538 Q 118.014 86.213 116.588 86.213 Z" transform="matrix(0.993401, 0, 0, 0.992193, -49.823407, -67.629754)" style="fill: rgb(255, 255, 255);"/>
  <path d="M 140.714 85.595 Q 140.714 87.493 140.231 89.048 Q 139.748 90.604 138.799 91.721 Q 137.85 92.839 136.429 93.445 Q 135.008 94.052 133.111 94.052 Q 131.179 94.052 129.747 93.445 Q 128.315 92.839 127.372 91.716 Q 126.428 90.593 125.962 89.032 Q 125.496 87.471 125.496 85.573 Q 125.496 83.046 126.327 81.148 Q 127.158 79.25 128.86 78.2 Q 130.561 77.15 133.144 77.15 Q 135.637 77.15 137.322 78.194 Q 139.007 79.239 139.86 81.131 Q 140.714 83.023 140.714 85.595 Z M 127.911 85.595 Q 127.911 87.594 128.467 89.048 Q 129.023 90.503 130.174 91.295 Q 131.325 92.086 133.111 92.086 Q 134.919 92.086 136.064 91.295 Q 137.21 90.503 137.749 89.048 Q 138.288 87.594 138.288 85.595 Q 138.288 82.563 137.052 80.85 Q 135.817 79.138 133.144 79.138 Q 131.347 79.138 130.191 79.918 Q 129.034 80.699 128.472 82.142 Q 127.911 83.585 127.911 85.595 Z" transform="matrix(0.993401, 0, 0, 0.992193, -49.823407, -67.629754)" style="fill: rgb(255, 255, 255);"/>
  <path d="M 156.941 77.408 L 156.941 88.032 Q 156.941 89.762 156.228 91.12 Q 155.515 92.479 154.077 93.265 Q 152.64 94.052 150.461 94.052 Q 147.373 94.052 145.75 92.395 Q 144.127 90.739 144.127 87.987 L 144.127 77.408 L 146.441 77.408 L 146.441 87.897 Q 146.441 89.975 147.479 91.031 Q 148.518 92.086 150.573 92.086 Q 151.988 92.086 152.887 91.575 Q 153.785 91.064 154.218 90.127 Q 154.65 89.189 154.65 87.897 L 154.65 77.408 Z" transform="matrix(0.993401, 0, 0, 0.992193, -49.823407, -67.629754)" style="fill: rgb(255, 255, 255);"/>
  <path d="M 165.732 77.408 Q 167.81 77.408 169.163 77.919 Q 170.516 78.43 171.179 79.469 Q 171.842 80.508 171.842 82.102 Q 171.842 83.36 171.381 84.225 Q 170.921 85.09 170.174 85.64 Q 169.427 86.19 168.573 86.505 L 173.167 93.827 L 170.528 93.827 L 166.529 87.111 L 163.508 87.111 L 163.508 93.827 L 161.206 93.827 L 161.206 77.408 Z M 165.586 79.362 L 163.508 79.362 L 163.508 85.191 L 165.743 85.191 Q 167.686 85.191 168.585 84.433 Q 169.483 83.675 169.483 82.192 Q 169.483 80.654 168.529 80.008 Q 167.574 79.362 165.586 79.362 Z" transform="matrix(0.993401, 0, 0, 0.992193, -49.823407, -67.629754)" style="fill: rgb(255, 255, 255);"/>
  <path d="M 188.922 93.827 L 186.159 93.827 L 177.658 80.373 L 177.568 80.373 Q 177.602 80.979 177.647 81.704 Q 177.692 82.428 177.72 83.22 Q 177.748 84.012 177.759 84.82 L 177.759 93.827 L 175.648 93.827 L 175.648 77.408 L 178.388 77.408 L 186.856 90.795 L 186.934 90.795 Q 186.912 90.301 186.878 89.571 Q 186.845 88.841 186.816 88.026 Q 186.788 87.212 186.788 86.482 L 186.788 77.408 L 188.922 77.408 Z" transform="matrix(0.993401, 0, 0, 0.992193, -49.823407, -67.629754)" style="fill: rgb(255, 255, 255);"/>
  <path d="M 202.52 93.827 L 193.3 93.827 L 193.3 77.408 L 202.52 77.408 L 202.52 79.385 L 195.602 79.385 L 195.602 84.27 L 202.105 84.27 L 202.105 86.224 L 195.602 86.224 L 195.602 91.839 L 202.52 91.839 Z" transform="matrix(0.993401, 0, 0, 0.992193, -49.823407, -67.629754)" style="fill: rgb(255, 255, 255);"/>
  <path d="M 93.765 102.16 Q 92.496 102.16 91.491 102.604 Q 90.486 103.047 89.79 103.895 Q 89.093 104.743 88.723 105.933 Q 88.352 107.124 88.352 108.618 Q 88.352 110.605 88.942 112.054 Q 89.531 113.503 90.722 114.289 Q 91.912 115.075 93.72 115.075 Q 94.799 115.075 95.781 114.879 Q 96.764 114.682 97.741 114.368 L 97.741 116.344 Q 96.798 116.703 95.792 116.878 Q 94.787 117.052 93.44 117.052 Q 90.924 117.052 89.256 116.007 Q 87.589 114.963 86.769 113.07 Q 85.949 111.178 85.949 108.606 Q 85.949 106.742 86.466 105.198 Q 86.982 103.654 87.982 102.525 Q 88.981 101.396 90.435 100.784 Q 91.89 100.172 93.788 100.172 Q 95.023 100.172 96.197 100.436 Q 97.37 100.7 98.359 101.172 L 97.505 103.092 Q 96.685 102.722 95.747 102.441 Q 94.81 102.16 93.765 102.16 Z" transform="matrix(0.993401, 0, 0, 0.992193, -49.823407, -67.629754)" style="fill: rgb(255, 255, 255);"/>
  <path d="M 115.683 108.595 Q 115.683 110.493 115.2 112.048 Q 114.717 113.604 113.768 114.721 Q 112.819 115.839 111.399 116.445 Q 109.978 117.052 108.08 117.052 Q 106.149 117.052 104.717 116.445 Q 103.285 115.839 102.341 114.716 Q 101.398 113.593 100.932 112.032 Q 100.466 110.471 100.466 108.573 Q 100.466 106.046 101.297 104.148 Q 102.128 102.25 103.83 101.2 Q 105.531 100.15 108.114 100.15 Q 110.607 100.15 112.292 101.194 Q 113.976 102.239 114.83 104.131 Q 115.683 106.023 115.683 108.595 Z M 102.881 108.595 Q 102.881 110.594 103.436 112.048 Q 103.992 113.503 105.143 114.295 Q 106.295 115.086 108.08 115.086 Q 109.888 115.086 111.034 114.295 Q 112.179 113.503 112.718 112.048 Q 113.257 110.594 113.257 108.595 Q 113.257 105.563 112.022 103.85 Q 110.787 102.138 108.114 102.138 Q 106.317 102.138 105.16 102.918 Q 104.004 103.699 103.442 105.142 Q 102.881 106.585 102.881 108.595 Z" transform="matrix(0.993401, 0, 0, 0.992193, -49.823407, -67.629754)" style="fill: rgb(255, 255, 255);"/>
  <path d="M 119.267 116.827 L 119.267 100.408 L 121.569 100.408 L 121.569 114.828 L 128.7 114.828 L 128.7 116.827 Z" transform="matrix(0.993401, 0, 0, 0.992193, -49.823407, -67.629754)" style="fill: rgb(255, 255, 255);"/>
  <path d="M 131.505 116.827 L 131.505 100.408 L 133.807 100.408 L 133.807 114.828 L 140.938 114.828 L 140.938 116.827 Z" transform="matrix(0.993401, 0, 0, 0.992193, -49.823407, -67.629754)" style="fill: rgb(255, 255, 255);"/>
  <path d="M 152.976 116.827 L 143.756 116.827 L 143.756 100.408 L 152.976 100.408 L 152.976 102.385 L 146.058 102.385 L 146.058 107.27 L 152.56 107.27 L 152.56 109.224 L 146.058 109.224 L 146.058 114.839 L 152.976 114.839 Z" transform="matrix(0.993401, 0, 0, 0.992193, -49.823407, -67.629754)" style="fill: rgb(255, 255, 255);"/>
  <path d="M 163.376 108.067 L 169.306 108.067 L 169.306 116.164 Q 168.014 116.602 166.644 116.827 Q 165.274 117.052 163.567 117.052 Q 161.029 117.052 159.288 116.041 Q 157.547 115.03 156.643 113.143 Q 155.739 111.257 155.739 108.606 Q 155.739 106.057 156.739 104.159 Q 157.738 102.261 159.647 101.217 Q 161.556 100.172 164.252 100.172 Q 165.599 100.172 166.84 100.431 Q 168.081 100.689 169.126 101.149 L 168.295 103.092 Q 167.419 102.699 166.358 102.424 Q 165.296 102.149 164.162 102.149 Q 162.275 102.149 160.922 102.946 Q 159.569 103.744 158.844 105.192 Q 158.12 106.641 158.12 108.629 Q 158.12 110.572 158.726 112.02 Q 159.333 113.469 160.624 114.278 Q 161.916 115.086 163.949 115.086 Q 164.971 115.086 165.695 114.974 Q 166.419 114.862 167.026 114.704 L 167.026 110.077 L 163.376 110.077 Z" transform="matrix(0.993401, 0, 0, 0.992193, -49.823407, -67.629754)" style="fill: rgb(255, 255, 255);"/>
  <path d="M 182.476 116.827 L 173.256 116.827 L 173.256 100.408 L 182.476 100.408 L 182.476 102.385 L 175.558 102.385 L 175.558 107.27 L 182.06 107.27 L 182.06 109.224 L 175.558 109.224 L 175.558 114.839 L 182.476 114.839 Z" transform="matrix(0.993401, 0, 0, 0.992193, -49.823407, -67.629754)" style="fill: rgb(255, 255, 255);"/>
  <path d="M 159.602 55.411 L 153.511 39.056 L 131.968 39.056 L 125.952 55.411 L 117.944 55.411 L 138.923 0.218 L 146.819 0.218 L 167.686 55.411 Z M 151.368 32.364 L 145.578 16.159 Q 145.315 15.332 144.77 13.678 Q 144.225 12.023 143.68 10.256 Q 143.134 8.489 142.796 7.324 Q 142.42 8.865 141.931 10.576 Q 141.443 12.286 140.973 13.772 Q 140.503 15.257 140.202 16.159 L 134.337 32.364 Z" transform="matrix(1, 0, 0, 1.006016, -0.943993, -0.499253)" style="fill: rgba(255, 255, 255, 0.14);"/>
</svg>