<?xml version="1.0" encoding="UTF-8" standalone="no"?>
<svg
   id="Layer_2"
   viewBox="0 0 224.06 31.98"
   version="1.1"
   sodipodi:docname="Horizontal White Green max.svg"
   inkscape:version="1.1.1 (3bf5ae0d25, 2021-09-20)"
   xmlns:inkscape="http://www.inkscape.org/namespaces/inkscape"
   xmlns:sodipodi="http://sodipodi.sourceforge.net/DTD/sodipodi-0.dtd"
   xmlns="http://www.w3.org/2000/svg"
   xmlns:svg="http://www.w3.org/2000/svg">
  <sodipodi:namedview
     id="namedview854"
     pagecolor="#ffffff"
     bordercolor="#666666"
     borderopacity="1.0"
     inkscape:pageshadow="2"
     inkscape:pageopacity="0.0"
     inkscape:pagecheckerboard="true"
     showgrid="false"
     inkscape:zoom="5.0299027"
     inkscape:cx="112.03"
     inkscape:cy="15.90488"
     inkscape:window-width="1920"
     inkscape:window-height="1018"
     inkscape:window-x="-6"
     inkscape:window-y="-6"
     inkscape:window-maximized="1"
     inkscape:current-layer="Layer_2" />
  <defs
     id="defs842">
    <style
       id="style840">.cls-1{fill:#fff;font-family:CenturyGothicPro, 'Century Gothic Pro';font-size:29.36px;}.cls-2{fill:none;stroke:#fff;stroke-linecap:round;stroke-linejoin:round;stroke-width:1.57px;}</style>
  </defs>
  <g
     id="Layer_1-2">
    <path
       class="cls-2"
       d="m 0.79,29.96 c 8.06,-8.8 16.13,-17.59 24.19,-26.38 0.55,8.8 1.11,17.59 1.66,26.39 C 20.88,23.37 15.12,16.77 9.36,10.18 6.51,16.77 3.65,23.36 0.79,29.96 Z"
       id="path844" />
    <path
       d="m 49.5368,18.40848 c 0,-1.43864 0.05872,-2.81856 0.55784,-4.08104 0.79272,-1.99648 2.4956,-3.17088 4.43336,-3.17088 2.11392,0 3.43512,1.52672 3.5232,2.90664 0.02936,0.5872 0.17616,1.49736 0.17616,2.6424 V 25.22 h 1.996481 v -9.2484 c 0,-4.43336 -2.084561,-6.7528 -5.314161,-6.7528 -2.29008,0 -4.34528,1.26248 -5.7252,3.75808 C 48.33304,10.45192 46.63016,9.2188 44.252,9.2188 c -2.23136,0 -3.9636,1.08632 -5.34352,3.0828 V 9.62984 H 36.912 V 25.22 h 1.99648 v -6.606 c 0,-2.3488 0.20552,-4.19848 1.3212,-5.63712 0.8808,-1.14504 2.26072,-1.82032 3.64064,-1.82032 2.0552,0 3.43512,1.468 3.5232,3.17088 0.02936,0.70464 0.1468,1.70288 0.1468,2.90664 V 25.22 h 1.99648 z"
       id="path5960"
       style="font-size:29.36px;font-family:CenturyGothicPro, 'Century Gothic Pro';fill:#ffffff" />
    <path
       d="m 64.216793,25.22 h 1.99648 V 9.62984 h -1.99648 z M 65.185673,3.2 c -0.8808,0 -1.64416,0.70464 -1.64416,1.64416 0,0.91016 0.734,1.67352 1.64416,1.67352 0.91016,0 1.67352,-0.76336 1.67352,-1.67352 C 66.859193,3.934 66.095833,3.2 65.185673,3.2 Z"
       id="path5962"
       style="font-size:29.36px;font-family:CenturyGothicPro, 'Century Gothic Pro';fill:#ffffff" />
    <path
       d="M 72.34948,9.62984 H 70.353 V 25.22 h 1.99648 v -6.54728 c 0,-2.46624 0.17616,-3.99296 1.35056,-5.51968 1.05696,-1.37992 2.43688,-2.11392 4.1104,-2.11392 3.02408,0 4.16912,2.02584 4.16912,5.69584 V 25.22 h 1.99648 v -8.74928 c 0,-4.90312 -2.37816,-7.25192 -5.78392,-7.25192 -2.29008,0 -4.22784,1.08632 -5.84264,3.20024 z"
       id="path5964"
       style="font-size:29.36px;font-family:CenturyGothicPro, 'Century Gothic Pro';fill:#ffffff" />
    <path
       d="m 87.998321,25.22 h 1.99648 V 9.62984 h -1.99648 z M 88.967201,3.2 c -0.8808,0 -1.64416,0.70464 -1.64416,1.64416 0,0.91016 0.734,1.67352 1.64416,1.67352 0.91016,0 1.67352,-0.76336 1.67352,-1.67352 C 90.640721,3.934 89.877361,3.2 88.967201,3.2 Z"
       id="path5966"
       style="font-size:29.36px;font-family:CenturyGothicPro, 'Century Gothic Pro';fill:#ffffff" />
    <path
       d="m 106.72997,18.40848 c 0,-1.43864 0.0587,-2.81856 0.55784,-4.08104 0.79272,-1.99648 2.4956,-3.17088 4.43336,-3.17088 2.11392,0 3.43512,1.52672 3.5232,2.90664 0.0294,0.5872 0.17616,1.49736 0.17616,2.6424 V 25.22 h 1.99648 v -9.2484 c 0,-4.43336 -2.08456,-6.7528 -5.31416,-6.7528 -2.29008,0 -4.34528,1.26248 -5.7252,3.75808 -0.85144,-2.52496 -2.55432,-3.75808 -4.93248,-3.75808 -2.231361,0 -3.963601,1.08632 -5.343521,3.0828 V 9.62984 h -1.99648 V 25.22 h 1.99648 v -6.606 c 0,-2.3488 0.20552,-4.19848 1.3212,-5.63712 0.8808,-1.14504 2.26072,-1.82032 3.640641,-1.82032 2.0552,0 3.43512,1.468 3.5232,3.17088 0.0294,0.70464 0.1468,1.70288 0.1468,2.90664 V 25.22 h 1.99648 z"
       id="path5968"
       style="font-size:29.36px;font-family:CenturyGothicPro, 'Century Gothic Pro';fill:#71b747;fill-opacity:1" />
    <path
       d="m 135.23852,12.47776 c -1.55608,-2.17264 -3.69936,-3.25896 -6.22432,-3.25896 -4.52144,0 -8.04464,3.72872 -8.04464,8.16208 0,4.43336 3.43512,8.2208 7.98592,8.2208 2.43688,0 4.58016,-0.99824 6.28304,-3.05344 V 25.22 h 1.96712 V 9.62984 h -1.96712 z m -6.04816,-1.3212 c 3.49384,0 6.19496,2.73048 6.19496,6.34176 0,3.87552 -3.02408,6.28304 -6.22432,6.28304 -3.49384,0 -6.13624,-2.96536 -6.13624,-6.34176 0,-3.34704 2.58368,-6.28304 6.1656,-6.28304 z"
       id="path5970"
       style="font-size:29.36px;font-family:CenturyGothicPro, 'Century Gothic Pro';fill:#71b747;fill-opacity:1" />
    <path
       d="M 145.2796,17.02856 139.37824,25.22 h 2.40752 l 4.6976,-6.54728 4.75632,6.54728 h 2.43688 l -5.98944,-8.19144 5.31416,-7.39872 h -2.37816 l -4.13976,5.75456 -4.13976,-5.75456 h -2.40752 z"
       id="path5972"
       style="font-size:29.36px;font-family:CenturyGothicPro, 'Century Gothic Pro';fill:#71b747;fill-opacity:1" />
    <path
       d="m 163.65891,25.22 h 1.99648 V 3.61104 h -1.99648 z"
       id="path5974"
       style="font-size:29.36px;font-family:CenturyGothicPro, 'Century Gothic Pro';fill:#ffffff" />
    <path
       d="m 183.3888,12.47776 c -1.55608,-2.17264 -3.69936,-3.25896 -6.22432,-3.25896 -4.52144,0 -8.04464,3.72872 -8.04464,8.16208 0,4.43336 3.43512,8.2208 7.98592,8.2208 2.43688,0 4.58016,-0.99824 6.28304,-3.05344 V 25.22 h 1.96712 V 9.62984 h -1.96712 z m -6.04816,-1.3212 c 3.49384,0 6.19496,2.73048 6.19496,6.34176 0,3.87552 -3.02408,6.28304 -6.22432,6.28304 -3.49384,0 -6.13624,-2.96536 -6.13624,-6.34176 0,-3.34704 2.58368,-6.28304 6.1656,-6.28304 z"
       id="path5976"
       style="font-size:29.36px;font-family:CenturyGothicPro, 'Century Gothic Pro';fill:#ffffff" />
    <path
       d="m 192.0206,22.34272 c 1.58544,2.17264 3.67,3.28832 6.19496,3.28832 4.5508,0 8.074,-3.78744 8.074,-8.19144 0,-4.43336 -3.46448,-8.2208 -8.01528,-8.2208 -2.43688,0 -4.5508,1.0276 -6.25368,3.0828 V 3.61104 h -1.99648 V 25.22 h 1.99648 z m 6.04816,1.35056 c -3.5232,0 -6.19496,-2.75984 -6.19496,-6.37112 0,-3.90488 2.99472,-6.28304 6.19496,-6.28304 3.49384,0 6.1656,2.96536 6.1656,6.34176 0,3.34704 -2.55432,6.3124 -6.1656,6.3124 z"
       id="path5978"
       style="font-size:29.36px;font-family:CenturyGothicPro, 'Century Gothic Pro';fill:#ffffff" />
    <path
       d="m 208.43282,23.39968 c 1.11568,1.43864 2.87728,2.23136 4.60952,2.23136 2.81856,0 4.6976,-2.17264 4.6976,-4.60952 0,-2.81856 -1.99648,-3.61128 -5.5784,-5.69584 -0.70464,-0.41104 -1.20376,-1.29184 -1.20376,-2.08456 0,-1.1744 1.05696,-2.08456 2.3488,-2.08456 1.26248,0 2.202,0.5872 3.14152,1.49736 l 1.29184,-1.3212 c -1.3212,-1.29184 -2.61304,-2.11392 -4.31592,-2.11392 -2.37816,0 -4.28656,1.67352 -4.28656,4.13976 0,2.73048 1.82032,3.58192 5.40224,5.5784 0.76336,0.41104 1.29184,1.26248 1.29184,2.17264 0,1.468 -1.35056,2.58368 -2.87728,2.58368 -1.1744,0 -2.26072,-0.61656 -3.25896,-1.73224 z"
       id="path5980"
       style="font-size:29.36px;font-family:CenturyGothicPro, 'Century Gothic Pro';fill:#ffffff" />
  </g>
</svg>
