<?xml version="1.0" encoding="utf-8"?>
<svg viewBox="89 204 264 36" xmlns="http://www.w3.org/2000/svg">
  <path d="M 92.336 236.333 L 92.336 209.424 L 103.951 209.424 Q 106.947 209.424 109.194 210.514 Q 111.441 211.605 112.689 213.655 Q 113.937 215.704 113.937 218.569 Q 113.937 221.459 112.656 223.443 Q 111.375 225.427 109.069 226.439 Q 106.763 227.451 103.689 227.451 L 96.751 227.451 L 96.751 221.775 L 102.217 221.775 Q 103.505 221.775 104.418 221.453 Q 105.331 221.131 105.824 220.421 Q 106.316 219.712 106.316 218.569 Q 106.316 217.413 105.824 216.683 Q 105.331 215.954 104.418 215.606 Q 103.505 215.258 102.217 215.258 L 99.642 215.258 L 99.642 236.333 Z M 108.103 223.982 L 114.831 236.333 L 106.895 236.333 L 100.325 223.982 Z" style="fill: rgb(255, 255, 255);"/>
  <path d="M 117.036 236.333 L 117.036 209.424 L 136.43 209.424 L 136.43 215.31 L 124.342 215.31 L 124.342 219.935 L 135.431 219.935 L 135.431 225.822 L 124.342 225.822 L 124.342 230.447 L 136.377 230.447 L 136.377 236.333 Z" style="fill: rgb(255, 255, 255);"/>
  <path d="M 140.049 236.333 L 140.049 209.424 L 151.664 209.424 Q 154.66 209.424 156.906 210.606 Q 159.153 211.789 160.402 213.931 Q 161.65 216.072 161.65 218.937 Q 161.65 221.827 160.369 223.943 Q 159.088 226.058 156.782 227.201 Q 154.476 228.344 151.401 228.344 L 144.464 228.344 L 144.464 222.668 L 149.93 222.668 Q 151.217 222.668 152.13 222.215 Q 153.044 221.762 153.536 220.921 Q 154.029 220.08 154.029 218.937 Q 154.029 217.78 153.536 216.959 Q 153.044 216.138 152.13 215.698 Q 151.217 215.258 149.93 215.258 L 147.354 215.258 L 147.354 236.333 Z" style="fill: rgb(255, 255, 255);"/>
  <path d="M 164.336 236.333 L 164.336 209.424 L 183.73 209.424 L 183.73 215.31 L 171.642 215.31 L 171.642 219.935 L 182.731 219.935 L 182.731 225.822 L 171.642 225.822 L 171.642 230.447 L 183.677 230.447 L 183.677 236.333 Z" style="fill: rgb(255, 255, 255);"/>
  <path d="M 186.613 215.31 L 186.613 209.424 L 210.001 209.424 L 210.001 215.31 L 201.907 215.31 L 201.907 236.333 L 194.707 236.333 L 194.707 215.31 Z" style="fill: rgb(255, 255, 255);"/>
  <path d="M 212.705 236.333 L 212.705 217.788 L 219.37 217.788 L 219.37 236.333 Z M 216.049 215.856 Q 214.685 215.856 213.719 214.962 Q 212.753 214.069 212.753 212.813 Q 212.753 211.557 213.719 210.664 Q 214.685 209.77 216.037 209.77 Q 217.402 209.77 218.361 210.664 Q 219.321 211.557 219.321 212.813 Q 219.321 214.069 218.361 214.962 Q 217.402 215.856 216.049 215.856 Z" style="fill: rgb(255, 255, 255);"/>
  <path d="M 222.063 215.31 L 222.063 209.424 L 245.451 209.424 L 245.451 215.31 L 237.357 215.31 L 237.357 236.333 L 230.157 236.333 L 230.157 215.31 Z" style="fill: rgb(255, 255, 255);"/>
  <path d="M 272.98 222.878 Q 272.98 227.372 271.232 230.453 Q 269.485 233.534 266.515 235.118 Q 263.546 236.701 259.893 236.701 Q 256.214 236.701 253.251 235.104 Q 250.288 233.508 248.547 230.427 Q 246.806 227.346 246.806 222.878 Q 246.806 218.385 248.547 215.304 Q 250.288 212.223 253.251 210.639 Q 256.214 209.056 259.893 209.056 Q 263.546 209.056 266.515 210.639 Q 269.485 212.223 271.232 215.304 Q 272.98 218.385 272.98 222.878 Z M 265.464 222.878 Q 265.464 220.461 264.827 218.799 Q 264.189 217.137 262.948 216.276 Q 261.706 215.415 259.893 215.415 Q 258.08 215.415 256.838 216.276 Q 255.596 217.137 254.959 218.799 Q 254.322 220.461 254.322 222.878 Q 254.322 225.296 254.959 226.958 Q 255.596 228.62 256.838 229.481 Q 258.08 230.342 259.893 230.342 Q 261.706 230.342 262.948 229.481 Q 264.189 228.62 264.827 226.958 Q 265.464 225.296 265.464 222.878 Z" style="fill: rgb(255, 255, 255);"/>
  <path d="M 276.349 236.333 L 276.349 209.424 L 287.964 209.424 Q 290.96 209.424 293.206 210.514 Q 295.453 211.605 296.702 213.655 Q 297.95 215.704 297.95 218.569 Q 297.95 221.459 296.669 223.443 Q 295.388 225.427 293.082 226.439 Q 290.776 227.451 287.701 227.451 L 280.764 227.451 L 280.764 221.775 L 286.23 221.775 Q 287.517 221.775 288.43 221.453 Q 289.344 221.131 289.836 220.421 Q 290.329 219.712 290.329 218.569 Q 290.329 217.413 289.836 216.683 Q 289.344 215.954 288.43 215.606 Q 287.517 215.258 286.23 215.258 L 283.654 215.258 L 283.654 236.333 Z M 292.116 223.982 L 298.843 236.333 L 290.907 236.333 L 284.338 223.982 Z" style="fill: rgb(255, 255, 255);"/>
  <path d="M 305.096 236.753 Q 303.572 236.753 302.488 235.683 Q 301.404 234.612 301.417 233.074 Q 301.404 231.577 302.488 230.512 Q 303.572 229.448 305.096 229.448 Q 306.541 229.448 307.651 230.512 Q 308.762 231.577 308.775 233.074 Q 308.762 234.099 308.243 234.934 Q 307.724 235.768 306.896 236.261 Q 306.068 236.753 305.096 236.753 Z" style="fill: rgb(255, 255, 255);"/>
  <path d="M 312.729 236.333 L 312.729 216.151 L 319.772 216.151 L 319.772 219.988 L 319.982 219.988 Q 320.534 217.859 321.736 216.874 Q 322.938 215.888 324.554 215.888 Q 325.027 215.888 325.494 215.961 Q 325.96 216.033 326.394 216.164 L 326.394 222.353 Q 325.855 222.169 325.067 222.077 Q 324.278 221.985 323.713 221.985 Q 322.649 221.985 321.802 222.465 Q 320.954 222.944 320.468 223.805 Q 319.982 224.665 319.982 225.822 L 319.982 236.333 Z" style="fill: rgb(214, 45, 48);"/>
  <rect x="212.912" y="209.881" width="6" height="5.5" style="fill: rgb(214, 45, 48); stroke: rgb(214, 45, 48);" transform="matrix(1, 0, 0, 1, 0, 2.842170943040401e-14)"/>
  <rect x="213" y="218" width="6" height="18" style="fill: rgb(255, 255, 255); stroke: rgb(255, 255, 255);" transform="matrix(1, 0, 0, 1, 0, 2.842170943040401e-14)"/>
  <path d="M 342.647 216.09 L 348.193 216.09 L 348.193 229.176 Q 348.193 231.51 347.081 233.211 Q 345.969 234.911 343.984 235.834 Q 341.999 236.756 339.376 236.756 Q 336.733 236.756 334.748 235.834 Q 332.763 234.911 331.661 233.211 Q 330.559 231.51 330.559 229.176 L 330.559 216.09 L 336.104 216.09 L 336.104 228.697 Q 336.104 229.645 336.523 230.388 Q 336.942 231.131 337.685 231.55 Q 338.428 231.969 339.376 231.969 Q 340.333 231.969 341.071 231.55 Q 341.81 231.131 342.228 230.388 Q 342.647 229.645 342.647 228.697 Z" transform="matrix(1.036058, 0, 0, 0.969813, -13.113631, 6.375448)" style="fill: rgb(214, 45, 48);"/>
  <path d="M 342.647 216.09 L 348.193 216.09 L 348.193 229.176 Q 348.193 231.51 347.081 233.211 Q 345.969 234.911 343.984 235.834 Q 341.999 236.756 339.376 236.756 Q 336.733 236.756 334.748 235.834 Q 332.763 234.911 331.661 233.211 Q 330.559 231.51 330.559 229.176 L 330.559 216.09 L 336.104 216.09 L 336.104 228.697 Q 336.104 229.645 336.523 230.388 Q 336.942 231.131 337.685 231.55 Q 338.428 231.969 339.376 231.969 Q 340.333 231.969 341.071 231.55 Q 341.81 231.131 342.228 230.388 Q 342.647 229.645 342.647 228.697 Z" transform="matrix(1.036058, 0, 0, 0.969813, -12.113796, 6.375449)" style="fill: rgb(214, 45, 48);"/>
  <path d="M 342.647 216.09 L 348.193 216.09 L 348.193 229.176 Q 348.193 231.51 347.081 233.211 Q 345.969 234.911 343.984 235.834 Q 341.999 236.756 339.376 236.756 Q 336.733 236.756 334.748 235.834 Q 332.763 234.911 331.661 233.211 Q 330.559 231.51 330.559 229.176 L 330.559 216.09 L 336.104 216.09 L 336.104 228.697 Q 336.104 229.645 336.523 230.388 Q 336.942 231.131 337.685 231.55 Q 338.428 231.969 339.376 231.969 Q 340.333 231.969 341.071 231.55 Q 341.81 231.131 342.228 230.388 Q 342.647 229.645 342.647 228.697 Z" transform="matrix(1.036058, 0, 0, 0.969813, -12.113795, 7.375447)" style="fill: rgb(214, 45, 48);"/>
  <path d="M 342.647 216.09 L 348.193 216.09 L 348.193 229.176 Q 348.193 231.51 347.081 233.211 Q 345.969 234.911 343.984 235.834 Q 341.999 236.756 339.376 236.756 Q 336.733 236.756 334.748 235.834 Q 332.763 234.911 331.661 233.211 Q 330.559 231.51 330.559 229.176 L 330.559 216.09 L 336.104 216.09 L 336.104 228.697 Q 336.104 229.645 336.523 230.388 Q 336.942 231.131 337.685 231.55 Q 338.428 231.969 339.376 231.969 Q 340.333 231.969 341.071 231.55 Q 341.81 231.131 342.228 230.388 Q 342.647 229.645 342.647 228.697 Z" transform="matrix(1.036058, 0, 0, 0.969813, -13.113796, 7.275449)" style="fill: rgb(214, 45, 48);"/>
</svg>